<?xml version="1.0" encoding="utf-8"?>
<!-- Generator: Adobe Illustrator 27.5.0, SVG Export Plug-In . SVG Version: 6.00 Build 0)  -->
<svg version="1.1" xmlns="http://www.w3.org/2000/svg" xmlns:xlink="http://www.w3.org/1999/xlink" x="0px" y="0px"
	 viewBox="0 0 500 500" style="enable-background:new 0 0 500 500;" xml:space="preserve">
<g id="Background_Complete">
	<g>
		<rect y="382.398" style="fill:#EBEBEB;" width="500" height="0.25"/>
		<rect x="359" y="391.922" style="fill:#EBEBEB;" width="90.901" height="0.25"/>
		<rect x="306.333" y="389.208" style="fill:#EBEBEB;" width="24.887" height="0.25"/>
		<rect x="349.524" y="401.208" style="fill:#EBEBEB;" width="38.587" height="0.25"/>
		<rect x="52.459" y="399.527" style="fill:#EBEBEB;" width="22.638" height="0.25"/>
		<rect x="84" y="399.527" style="fill:#EBEBEB;" width="26.889" height="0.25"/>
		<rect x="178.309" y="395.305" style="fill:#EBEBEB;" width="46.838" height="0.25"/>
		<path style="fill:#EBEBEB;" d="M237.014,337.799H43.915c-3.147,0-5.708-2.561-5.708-5.708V60.66c0-3.147,2.561-5.708,5.708-5.708
			h193.099c3.146,0,5.707,2.561,5.707,5.708v271.432C242.721,335.239,240.16,337.799,237.014,337.799z M43.915,55.202
			c-3.01,0-5.458,2.448-5.458,5.458v271.432c0,3.01,2.448,5.458,5.458,5.458h193.099c3.009,0,5.457-2.448,5.457-5.458V60.66
			c0-3.009-2.448-5.458-5.457-5.458H43.915z"/>
		<path style="fill:#EBEBEB;" d="M453.31,337.799H260.212c-3.147,0-5.707-2.561-5.707-5.708V60.66c0-3.147,2.56-5.708,5.707-5.708
			H453.31c3.148,0,5.708,2.561,5.708,5.708v271.432C459.019,335.239,456.458,337.799,453.31,337.799z M260.212,55.202
			c-3.009,0-5.457,2.448-5.457,5.458v271.432c0,3.01,2.448,5.458,5.457,5.458H453.31c3.01,0,5.458-2.448,5.458-5.458V60.66
			c0-3.009-2.448-5.458-5.458-5.458H260.212z"/>
	</g>
	<g>
		<g>
			
				<rect x="52.459" y="117.986" transform="matrix(-1 -1.224647e-16 1.224647e-16 -1 224.4736 500.3837)" style="fill:#F0F0F0;" width="119.556" height="264.412"/>
			
				<rect x="52.459" y="117.986" transform="matrix(-1 -1.224647e-16 1.224647e-16 -1 218.8069 500.3837)" style="fill:#F5F5F5;" width="113.889" height="264.412"/>
			
				<rect x="-16.803" y="199.247" transform="matrix(-1.836970e-16 1 -1 -1.836970e-16 359.5954 140.7886)" style="fill:#F0F0F0;" width="252.412" height="101.89"/>
			<path style="fill:#FFFFFF;" d="M91.383,243.027H70.606c-1.467,0-2.667-1.2-2.667-2.667v0c0-1.467,1.2-2.667,2.667-2.667h20.778
				c1.467,0,2.667,1.2,2.667,2.667v0C94.05,241.827,92.85,243.027,91.383,243.027z"/>
			
				<rect x="-66.969" y="249.414" transform="matrix(-1.836970e-16 1 -1 -1.836970e-16 309.4286 190.9554)" style="fill:#F0F0F0;" width="252.412" height="1.556"/>
		</g>
		<g>
			<g>
				
					<rect x="228.023" y="300.187" transform="matrix(-1 -1.224647e-16 1.224647e-16 -1 473.846 677.5715)" style="fill:#F0F0F0;" width="17.8" height="77.198"/>
				
					<rect x="154.623" y="377.385" transform="matrix(-1 -1.224647e-16 1.224647e-16 -1 397.0285 759.6605)" style="fill:#F0F0F0;" width="87.782" height="4.891"/>
				<rect x="151.206" y="300.187" style="fill:#F5F5F5;" width="76.817" height="77.198"/>
				<rect x="158.204" y="309.689" style="fill:#F0F0F0;" width="62.821" height="25.318"/>
				<rect x="158.204" y="342.564" style="fill:#F0F0F0;" width="62.821" height="25.318"/>
				<path style="fill:#F5F5F5;" d="M182.562,311.823h14.105c0.955,0,1.736-0.781,1.736-1.736l0,0c0-0.955-0.781-1.736-1.736-1.736
					h-14.105c-0.955,0-1.736,0.781-1.736,1.736l0,0C180.826,311.042,181.607,311.823,182.562,311.823z"/>
				<path style="fill:#F5F5F5;" d="M182.562,344.699h14.105c0.955,0,1.736-0.781,1.736-1.736l0,0c0-0.955-0.781-1.736-1.736-1.736
					h-14.105c-0.955,0-1.736,0.781-1.736,1.736l0,0C180.826,343.917,181.607,344.699,182.562,344.699z"/>
			</g>
			<path style="fill:#F5F5F5;" d="M195.468,298.668L195.468,298.668c-0.725,0-1.318-0.593-1.318-1.318v-40.114
				c0-0.725,0.593-1.318,1.318-1.318h0c0.725,0,1.318,0.593,1.318,1.318v40.114C196.786,298.075,196.193,298.668,195.468,298.668z"
				/>
			<rect x="183.118" y="297.112" style="fill:#F0F0F0;" width="24.699" height="3.112"/>
			<path style="fill:#F0F0F0;" d="M202.311,274.674L202.311,274.674c-0.362,0-0.659-0.296-0.659-0.659v-20.057
				c0-0.362,0.296-0.659,0.659-0.659l0,0c0.362,0,0.659,0.296,0.659,0.659v20.057C202.97,274.378,202.674,274.674,202.311,274.674z"
				/>
			<g>
				<path style="fill:#F0F0F0;" d="M176.264,260.897c0,0,0.488-18.879,19.204-18.879s19.204,18.879,19.204,18.879H176.264z"/>
			</g>
		</g>
		<g>
			<g>
				<path style="fill:#F0F0F0;" d="M338.311,287.605v0.007c0.533,0,1.069,0.011,1.61,0.048
					c11.369,0.776,20.561,10.017,21.286,21.389c0.166,2.597-0.103,5.108-0.738,7.468c-2.619,9.724-3.597,19.818-3.597,29.888v29.347
					c0,2.128-1.725,3.853-3.853,3.853h-14.708h-14.708h-63.737v-92H338.311z"/>
				<path style="fill:#F5F5F5;" d="M236.923,310.549c0-13.204,11.154-23.803,24.554-22.889
					c11.369,0.776,20.561,10.017,21.286,21.389c0.166,2.597-0.103,5.108-0.738,7.468c-2.619,9.724-3.597,19.818-3.597,29.888v29.347
					c0,2.128-1.725,3.853-3.853,3.853h-29.415c-2.128,0-3.853-1.725-3.853-3.853v-31.07c0-9.447-1.029-18.899-3.553-28.002
					C237.212,314.729,236.923,312.673,236.923,310.549z"/>
			</g>
			
				<rect x="291.482" y="323.746" transform="matrix(-1 -1.224647e-16 1.224647e-16 -1 666.5763 703.3516)" style="fill:#F0F0F0;" width="83.612" height="55.859"/>
			<path style="fill:#E0E0E0;" d="M349.653,233.333h77.183c9.59,0,17.365,7.774,17.365,17.365v85.678H332.288v-85.678
				C332.288,241.107,340.063,233.333,349.653,233.333z"/>
			<path style="fill:#F5F5F5;" d="M326.953,233.333h78.856c9.128,0,16.528,7.4,16.528,16.528v86.514H310.425v-86.514
				C310.425,240.733,317.825,233.333,326.953,233.333z"/>
			<path style="fill:#E0E0E0;" d="M292.555,318.646h77.068c0.831,0,1.505,0.674,1.505,1.505v19.738c0,0.831-0.674,1.505-1.505,1.505
				h-77.068c-2.783,0-5.039-2.256-5.039-5.039v-12.669C287.515,320.903,289.772,318.646,292.555,318.646z"/>
			<g>
				<path style="fill:#F0F0F0;" d="M452.446,287.605v0.007c0.533,0,1.069,0.011,1.61,0.048
					c11.369,0.776,20.561,10.017,21.286,21.389c0.166,2.597-0.103,5.108-0.738,7.468c-2.619,9.724-3.597,19.818-3.597,29.888v29.347
					c0,2.128-1.725,3.853-3.853,3.853h-14.708h-14.708h-63.737v-92H452.446z"/>
				<path style="fill:#F5F5F5;" d="M351.057,310.549c0-13.204,11.154-23.803,24.554-22.889
					c11.369,0.776,20.561,10.017,21.286,21.389c0.166,2.597-0.103,5.108-0.738,7.468c-2.619,9.724-3.597,19.818-3.597,29.888v29.347
					c0,2.128-1.725,3.853-3.853,3.853h-29.415c-2.128,0-3.853-1.725-3.853-3.853v-31.07c0-9.447-1.029-18.899-3.553-28.002
					C351.346,314.729,351.057,312.673,351.057,310.549z"/>
			</g>
			<path style="fill:#E0E0E0;" d="M261.504,382.398h189.304c1.543,0,2.793-1.25,2.793-2.793l0,0h-194.89l0,0
				C258.711,381.148,259.961,382.398,261.504,382.398z"/>
		</g>
		<g>
			<g>
				<g>
					
						<rect x="373.626" y="101.457" transform="matrix(-1 -1.224647e-16 1.224647e-16 -1 808.1424 269.3279)" style="fill:#E0E0E0;" width="60.89" height="66.414"/>
					
						<rect x="369.983" y="101.457" transform="matrix(-1 -1.224647e-16 1.224647e-16 -1 802.4404 269.3279)" style="fill:#F5F5F5;" width="62.474" height="66.414"/>
					
						<rect x="373.247" y="108.661" transform="matrix(-1.836970e-16 1 -1 -1.836970e-16 535.8842 -266.5562)" style="fill:#FFFFFF;" width="55.946" height="52.006"/>
					<polygon style="fill:#F5F5F5;" points="401.22,120.522 415.443,145.157 386.997,145.157 					"/>
				</g>
			</g>
			<g>
				<g>
					
						<rect x="288.207" y="140.225" transform="matrix(-1 -1.224647e-16 1.224647e-16 -1 637.3047 346.8628)" style="fill:#E0E0E0;" width="60.89" height="66.414"/>
					
						<rect x="284.564" y="140.225" transform="matrix(-1 -1.224647e-16 1.224647e-16 -1 631.6026 346.8628)" style="fill:#F5F5F5;" width="62.474" height="66.414"/>
					
						<rect x="287.828" y="147.428" transform="matrix(-1.836970e-16 1 -1 -1.836970e-16 489.2328 -142.3699)" style="fill:#FFFFFF;" width="55.946" height="52.006"/>
					<path style="fill:#F5F5F5;" d="M309.437,183.408l-6.169-10.686c-2.829-4.899,0.707-11.023,6.364-11.023h12.339
						c5.657,0,9.193,6.124,6.364,11.023l-6.169,10.686C319.337,188.308,312.266,188.308,309.437,183.408z"/>
				</g>
			</g>
		</g>
	</g>
</g>
<g id="Background_Simple" style="display:none;">
	<g style="display:inline;">
		<path style="fill:#407BFF;" d="M376.079,144.074c-25.989-23.098-64.729-32.801-98.883-29.644
			c-17.174,1.587-30.974,8.707-46.654,15.059c-21.967,8.899-36.541,5.041-58.96,2.604C106.333,125,76.229,187.978,75.097,235
			c-1.376,57.178,38.65,109.359,94.976,123.885c37.928,9.781,74.471,10.199,107.674-2.116c25.927-9.616,32.391-30.737,40.628-55.061
			c6.29-18.576,11.904-39.543,25.833-54.152c12.736-13.358,25.847-2.109,40.497-10.226C422,216.666,397.967,163.528,376.079,144.074
			z"/>
		<path style="opacity:0.9;fill:#FFFFFF;" d="M376.079,144.074c-25.989-23.098-64.729-32.801-98.883-29.644
			c-17.174,1.587-30.974,8.707-46.654,15.059c-21.967,8.899-36.541,5.041-58.96,2.604C106.333,125,76.229,187.978,75.097,235
			c-1.376,57.178,38.65,109.359,94.976,123.885c37.928,9.781,74.471,10.199,107.674-2.116c25.927-9.616,32.391-30.737,40.628-55.061
			c6.29-18.576,11.904-39.543,25.833-54.152c12.736-13.358,25.847-2.109,40.497-10.226C422,216.666,397.967,163.528,376.079,144.074
			z"/>
	</g>
</g>
<g id="Shadow_1_">
	<ellipse id="_x3C_Path_x3E__82_" style="fill:#F5F5F5;" cx="250" cy="416.238" rx="193.889" ry="11.323"/>
</g>
<g id="Checklist">
	<g>
		<g>
			<polygon style="fill:#407BFF;" points="316.496,99.296 85.979,99.296 101.154,413.238 331.672,413.238 			"/>
			<polygon style="opacity:0.2;" points="316.496,99.296 85.979,99.296 101.154,413.238 331.672,413.238 			"/>
		</g>
		<polygon style="fill:#407BFF;" points="318.63,99.296 88.113,99.296 103.288,413.238 333.805,413.238 		"/>
		<g>
			<polygon style="opacity:0.2;" points="306.456,109.856 98.653,109.856 113.172,399.049 293.869,398.809 323.897,372.185 			"/>
			<g>
				<g>
					<path style="fill:#FFFFFF;" d="M308.052,109.854c2.168,86.192,9.139,172.609,20.896,258.854
						c-16.466,11.327-32.85,22.65-49.15,33.971c-51.79,0-103.579,0-155.37,0c-14.723-97.512-23.322-195.313-25.776-292.826
						C168.452,109.854,238.252,109.854,308.052,109.854z"/>
					<path style="fill:#EBEBEB;" d="M328.948,368.708c-16.466,11.327-32.85,22.65-49.15,33.971
						c3.566-14.997,7.277-30.001,11.134-45.008C303.596,361.351,316.268,365.03,328.948,368.708z"/>
				</g>
				<g>
					<g>
						<path style="fill:#407BFF;" d="M155.012,136.311c0.387,10.59,0.846,21.182,1.378,31.777c-10.593,0-21.185,0-31.777,0
							c-0.532-10.595-0.992-21.186-1.378-31.777C133.827,136.311,144.419,136.311,155.012,136.311 M158.248,132.96
							c-12.83,0-25.66,0-38.49,0c0.45,12.822,1.006,25.649,1.668,38.479c12.83,0,25.66,0,38.49,0
							C159.255,158.61,158.699,145.784,158.248,132.96C158.249,132.96,158.249,132.96,158.248,132.96z"/>
					</g>
					<g>
						<path style="fill:#E0E0E0;" d="M284.819,148.239c-36.275,0-72.55,0-108.825,0c-0.1-2.394-0.196-4.786-0.288-7.18
							c36.275,0,72.55,0,108.825,0C284.623,143.453,284.719,145.845,284.819,148.239z"/>
						<path style="fill:#E0E0E0;" d="M261.828,163.338c-28.386,0-56.771,0-85.157,0c-0.116-2.394-0.227-4.788-0.335-7.182
							c28.385,0,56.771,0,85.157,0C261.601,158.55,261.713,160.944,261.828,163.338z"/>
					</g>
				</g>
				<g>
					<g>
						<path style="fill:#407BFF;" d="M158.118,198.552c0.67,10.598,1.413,21.198,2.228,31.797c-10.592,0-21.185,0-31.777,0
							c-0.815-10.6-1.558-21.2-2.228-31.797C136.933,198.552,147.525,198.552,158.118,198.552 M161.265,195.199
							c-12.829,0-25.66,0-38.489,0c0.793,12.832,1.693,25.668,2.698,38.504c12.829,0,25.66,0,38.489,0
							C162.958,220.867,162.058,208.031,161.265,195.199C161.264,195.199,161.264,195.199,161.265,195.199z"/>
					</g>
					<g>
						<path style="fill:#E0E0E0;" d="M219.398,210.489c-13.327,0-26.652,0-39.979,0c-0.163-2.395-0.324-4.79-0.48-7.186
							c13.327,0,26.652,0,39.979,0C219.074,205.699,219.234,208.094,219.398,210.489z"/>
						<path style="fill:#E0E0E0;" d="M257.266,210.489c-9.802,0-19.605,0-29.407,0c-0.164-2.395-0.324-4.79-0.48-7.186
							c9.803,0,19.605,0,29.408,0C256.942,205.699,257.103,208.094,257.266,210.489z"/>
						<path style="fill:#E0E0E0;" d="M275.73,225.597c-31.743,0-63.486,0-95.23,0c-0.179-2.395-0.355-4.79-0.527-7.186
							c31.743,0,63.487,0,95.23,0C275.375,220.806,275.552,223.201,275.73,225.597z"/>
					</g>
				</g>
				<g>
					<g>
						<path style="fill:#407BFF;" d="M162.889,260.824c0.954,10.6,1.98,21.201,3.077,31.8c-10.593,0-21.185,0-31.777,0
							c-1.098-10.6-2.124-21.199-3.077-31.8C141.704,260.824,152.296,260.824,162.889,260.824 M165.945,257.47
							c-12.83,0-25.66,0-38.49,0c1.136,12.836,2.378,25.672,3.726,38.507c12.83,0,25.66,0,38.49,0
							C168.324,283.142,167.082,270.307,165.945,257.47C165.945,257.47,165.945,257.47,165.945,257.47z"/>
					</g>
					<g>
						<path style="fill:#E0E0E0;" d="M294.1,280.686c-36.275,0-72.55,0-108.825,0c0.236,2.396,0.476,4.791,0.719,7.186
							c36.275,0,72.55,0,108.825,0C294.576,285.477,294.336,283.081,294.1,280.686z"/>
						<path style="fill:#E0E0E0;" d="M268.992,265.577c-28.386,0-56.771,0-85.156,0c0.22,2.395,0.444,4.791,0.672,7.186
							c28.385,0,56.771,0,85.157,0C269.436,270.368,269.213,267.973,268.992,265.577z"/>
					</g>
				</g>
				<g>
					<g>
						<path style="fill:#407BFF;" d="M169.322,323.094c1.237,10.597,2.545,21.192,3.926,31.786c-10.592,0-21.185,0-31.777,0
							c-1.381-10.594-2.69-21.19-3.926-31.786C148.138,323.094,158.73,323.094,169.322,323.094 M172.289,319.741
							c-12.83,0-25.66,0-38.49,0c1.479,12.833,3.064,25.663,4.754,38.491c12.83,0,25.66,0,38.49,0
							C175.353,345.405,173.768,332.574,172.289,319.741L172.289,319.741z"/>
					</g>
					<g>
						<path style="fill:#E0E0E0;" d="M300.086,335.029c-36.275,0-72.55,0-108.825,0c-0.292-2.394-0.58-4.788-0.864-7.184
							c36.275,0,72.55,0,108.825,0C299.506,330.239,299.794,332.634,300.086,335.029z"/>
						<path style="fill:#E0E0E0;" d="M242.688,350.13c-16.513,0-33.027,0-49.539,0c-0.307-2.393-0.61-4.789-0.91-7.183
							c16.513,0,33.026,0,49.539,0C242.077,345.341,242.381,347.736,242.688,350.13z"/>
						<path style="fill:#E0E0E0;" d="M272.274,350.13c-7.13,0-14.261,0-21.392,0c-0.307-2.393-0.611-4.789-0.91-7.183
							c7.131,0,14.261,0,21.392,0C271.664,345.341,271.967,347.736,272.274,350.13z"/>
					</g>
				</g>
				<path style="fill:#407BFF;" d="M140.968,163.553c-0.47-0.749-0.94-1.496-1.409-2.245c-3.074-4.896-9.361-9.272-11.525-10.546
					c0.536-0.956,1.074-1.913,1.611-2.869c2.559,1.508,7.764,5.237,11.269,9.67c4.839-6.596,11.991-13.4,21.792-20.727
					c0.691,0.902,1.383,1.805,2.074,2.708c-10.464,7.827-17.785,15.002-22.402,21.899
					C141.908,162.146,141.437,162.849,140.968,163.553z"/>
				<path style="fill:#407BFF;" d="M144.803,225.811c-0.491-0.749-0.98-1.497-1.469-2.246c-3.202-4.9-9.608-9.279-11.807-10.552
					c0.511-0.957,1.022-1.914,1.534-2.871c2.603,1.511,7.905,5.242,11.528,9.676c4.662-6.601,11.633-13.404,21.237-20.741
					c0.716,0.903,1.431,1.807,2.147,2.711c-10.252,7.841-17.387,15.008-21.816,21.913
					C145.705,224.404,145.253,225.106,144.803,225.811z"/>
				<path style="fill:#407BFF;" d="M150.316,288.236c-0.509-0.748-1.02-1.497-1.529-2.246c-3.333-4.899-9.858-9.277-12.09-10.553
					c0.485-0.957,0.971-1.915,1.458-2.872c2.642,1.513,8.044,5.243,11.787,9.677c4.488-6.6,11.274-13.406,20.681-20.744
					c0.739,0.904,1.479,1.808,2.22,2.711c-10.043,7.84-16.985,15.012-21.229,21.915
					C151.181,286.828,150.749,287.533,150.316,288.236z"/>
				<path style="fill:#EBEBEB;" d="M251.127,385.457c-5.9-0.003-9.301-2.181-12.299-4.101c-2.867-1.841-5.574-3.572-10.557-3.575
					c-4.985,0-7.203,1.736-9.549,3.575c-2.452,1.921-5.232,4.105-11.129,4.101c-5.896-0.003-9.303-2.181-12.297-4.101
					c-2.868-1.841-5.57-3.572-10.556-3.575c-4.985,0-7.203,1.736-9.547,3.575c-2.452,1.921-5.23,4.105-11.127,4.101
					c-5.899-0.003-9.299-2.181-12.297-4.101c-2.868-1.841-5.573-3.572-10.556-3.575c-0.135-0.96-0.268-1.919-0.402-2.879
					c5.897,0.003,9.291,2.177,12.286,4.102c2.864,1.835,5.573,3.577,10.557,3.574c4.983,0.002,7.197-1.739,9.546-3.574
					c2.454-1.922,5.238-4.101,11.138-4.102c5.897,0.003,9.287,2.177,12.287,4.102c2.862,1.835,5.575,3.577,10.557,3.574
					c4.985,0.002,7.198-1.739,9.548-3.574c2.453-1.922,5.241-4.101,11.14-4.102c5.898,0.003,9.29,2.177,12.288,4.102
					c2.863,1.835,5.573,3.577,10.559,3.574C250.852,383.538,250.99,384.496,251.127,385.457z"/>
			</g>
		</g>
		<g>
			<path style="fill:#263238;" d="M259.587,107.065c-3.373-8.962-11.184-14.904-19.591-14.904h-17.114
				c-2.554,0-4.945-1.562-5.953-3.955c-2.408-5.715-8.107-9.787-14.566-9.787c-6.459,0-11.764,4.072-13.62,9.787
				c-0.777,2.393-3.017,3.955-5.571,3.955h-17.114c-8.408,0-15.644,5.942-18.151,14.904l-1.001,3.58h57.015h57.015L259.587,107.065z
				"/>
			<g>
				<path style="fill:#407BFF;" d="M260.203,114.159H147.976c-1.933,0-3.591-1.581-3.684-3.514v0
					c-0.093-1.933,1.412-3.514,3.344-3.514h112.227c1.933,0,3.591,1.581,3.684,3.514v0
					C263.641,112.578,262.136,114.159,260.203,114.159z"/>
				<path style="opacity:0.2;" d="M260.203,114.159H147.976c-1.933,0-3.591-1.581-3.684-3.514v0
					c-0.093-1.933,1.412-3.514,3.344-3.514h112.227c1.933,0,3.591,1.581,3.684,3.514v0
					C263.641,112.578,262.136,114.159,260.203,114.159z"/>
			</g>
		</g>
	</g>
</g>
<g id="Character_1_">
	<g>
		<polygon style="fill:#FFC3BD;" points="360.916,410.232 353.59,410.232 352.86,393.265 360.187,393.265 		"/>
		<polygon style="fill:#FFC3BD;" points="404.907,410.232 397.58,410.232 393.898,393.265 401.224,393.265 		"/>
		<path style="fill:#263238;" d="M397.06,409.384l8.231,0c0.3,0,0.559,0.208,0.624,0.5l1.447,6.513
			c0.15,0.676-0.381,1.315-1.073,1.303c-2.874-0.049-4.27-0.218-7.89-0.218c-2.227,0-6.815,0.231-9.89,0.231
			c-3.008,0-3.477-3.041-2.218-3.316c5.645-1.235,7.772-2.938,9.579-4.563C396.196,409.541,396.621,409.384,397.06,409.384z"/>
		<path style="fill:#263238;" d="M353.638,409.384l8.001,0c0.3,0,0.559,0.208,0.624,0.5l1.447,6.512
			c0.15,0.675-0.363,1.315-1.054,1.303c-2.886-0.049-7.057-0.218-10.685-0.218c-4.242,0-7.905,0.231-12.88,0.231
			c-3.008,0-3.843-3.041-2.584-3.316c5.732-1.254,10.412-1.388,15.365-4.442C352.411,409.622,353.006,409.384,353.638,409.384z"/>
		<path style="fill:#FFC3BD;" d="M367.957,142.922c-1.051,5.36-1.573,12.003,2.177,15.58c0,0-2.154,5.437-12.114,5.437
			c-9.101,0-4.545-5.437-4.545-5.437c5.977-1.427,5.665-8.819,4.624-12.984L367.957,142.922z"/>
		<g>
			<path style="fill:#407BFF;" d="M350.656,159.25c0.208-1.333,2.542-2.875,5.208-3.458c2.667-0.583,12.875-1.875,16-0.583
				s-0.542,5.116-0.542,5.116L350.656,159.25z"/>
			<path style="opacity:0.4;fill:#FFFFFF;" d="M350.656,159.25c0.208-1.333,2.542-2.875,5.208-3.458
				c2.667-0.583,12.875-1.875,16-0.583s-0.542,5.116-0.542,5.116L350.656,159.25z"/>
		</g>
		<g>
			<polygon style="opacity:0.2;" points="352.862,393.269 353.236,402.015 360.566,402.015 360.191,393.269 			"/>
			<polygon style="opacity:0.2;" points="401.227,393.269 393.897,393.269 395.799,402.015 403.129,402.015 			"/>
		</g>
		<path style="fill:#FFC3BD;" d="M385.351,165.102l-8.828,5.919c0,0,12.681,22.546,11.616,26.159
			c-1.449,4.917-3.471,15.675-6.219,21.132c0.357,1.176,2.187,3.867,3.207,4.334c6.982-5.326,14.076-22.017,13.809-26.671
			C398.329,185.364,385.351,165.102,385.351,165.102z"/>
		<path style="fill:#B55B52;" d="M381.92,218.311l-6.969-0.54l3.667,7.712c0,0,6.109,0.27,7.13-4.399L381.92,218.311z"/>
		<g>
			<polygon style="fill:#407BFF;" points="416.521,255.911 415.929,257.017 411.965,264.509 271.392,190.175 275.933,181.579 			"/>
			<polygon style="fill:#407BFF;" points="425.614,238.738 422.712,244.224 421.07,247.32 280.483,172.989 285.024,164.393 			"/>
			<g>
				
					<rect x="343.641" y="134.938" transform="matrix(0.468 -0.8837 0.8837 0.468 -4.1176 422.0638)" style="fill:#407BFF;" width="9.721" height="159.027"/>
				
					<rect x="343.641" y="134.936" transform="matrix(0.468 -0.8837 0.8837 0.468 -4.1155 422.0631)" style="opacity:0.2;" width="9.721" height="159.028"/>
			</g>
			<g>
				<polygon style="fill:#407BFF;" points="265.332,165.532 261.242,173.267 271.39,190.181 285.024,164.397 				"/>
				<polygon style="opacity:0.8;fill:#FFFFFF;" points="265.332,165.532 261.242,173.267 271.39,190.181 285.024,164.397 				"/>
			</g>
			<polygon style="fill:#407BFF;" points="256.893,166.018 261.242,173.267 265.332,165.532 			"/>
		</g>
		<polygon style="fill:#B55B52;" points="369.286,221.283 372.949,228.105 378.618,225.483 374.951,217.771 		"/>
		<path style="fill:#263238;" d="M383.253,160.158c6.932,1.008,14.871,25.029,14.871,25.029l-14.559,8.223
			c0,0-6.412-11.425-9.574-19.908C370.677,164.613,375.818,159.077,383.253,160.158z"/>
		<path style="opacity:0.2;" d="M379.22,168.39c-3.15-2.88-1.22,9.45,0.28,17.34c0.77,1.54,1.5,2.94,2.12,4.11
			C385.13,183.64,383.56,172.359,379.22,168.39z"/>
		<path style="fill:#263238;" d="M342.206,160.536c0,0-8.647,22.125-0.434,63.328c11.808,0,33.443,0,39.188,0
			c0.27-6.016-3.51-35.361,2.292-63.705c0,0-6.717-1.348-13.118-1.657c-5.007-0.241-12.257-0.401-16.659,0.001
			C347.672,159.032,342.206,160.536,342.206,160.536z"/>
		<path style="fill:#FFC3BD;" d="M348.243,170.821l-9.882-3.914c0,0-11.376,23.231-14.956,24.404
			c-4.871,1.596-14.879,6.032-20.931,6.864c-0.766,0.961-1.944,3.994-1.751,5.099c8.346,2.73,26.117-0.895,29.798-3.754
			C338.915,193.001,348.243,170.821,348.243,170.821z"/>
		<path style="opacity:0.2;" d="M349.35,168.18c-1.63-3.76-4.75-5.33-8.04-4.78c-1.26,4.61-3.39,14.74-3.04,29.99l2.33,1.12
			C340.6,194.509,352.14,174.609,349.35,168.18z"/>
		<path style="fill:#263238;" d="M350.906,165.55c2.469,6.555-10.04,25.859-10.04,25.859l-14.653-7.958
			c0,0,3.416-9.629,8.467-17.152C339.866,158.573,348.196,158.356,350.906,165.55z"/>
		<path style="fill:#FFC3BD;" d="M302.794,198.153l-8.728,1.888l4.423,8.07c0,0,2.688-1.098,6.547-4.776L302.794,198.153z"/>
		<polygon style="fill:#FFC3BD;" points="289.953,201.831 293.434,206.649 298.489,208.111 294.066,200.041 		"/>
		
			<ellipse transform="matrix(0.0576 -0.9983 0.9983 0.0576 195.5478 477.4927)" style="fill:#263238;" cx="350.684" cy="135.172" rx="1.07" ry="0.699"/>
		<path style="fill:#ED847E;" d="M351.903,135.259c0,0-1.538,3.326-3.109,4.883c0.988,1.034,2.788,0.691,2.788,0.691
			L351.903,135.259z"/>
		<path style="fill:#263238;" d="M350.627,133.166c-0.05-0.006-0.101-0.023-0.146-0.053c-0.161-0.104-0.207-0.318-0.103-0.48
			c1.041-1.613,2.643-1.638,2.71-1.639c0.187-0.008,0.347,0.153,0.349,0.346c0.001,0.191-0.153,0.347-0.343,0.349l0,0
			c-0.053,0-1.301,0.034-2.133,1.321C350.886,133.125,350.754,133.182,350.627,133.166z"/>
		<path style="fill:#FFC3BD;" d="M371.261,134.695c-0.863,7.22-1.001,11.49-4.875,14.998c-5.827,5.277-14.58,1.443-15.892-5.89
			c-1.181-6.6,0.429-17.298,7.687-19.773C365.333,121.593,372.124,127.475,371.261,134.695z"/>
		<path style="fill:#263238;" d="M356.711,136.111c-2.529,0.5-6.568-5.117-3.275-9.889c-1.669-0.833-7.114,2.444-9.169-0.611
			c-2.056-3.056,3.639-4.694,2.556-7.278c3.862,0.792-2.5,5.608,1.167,5.138c3.667-0.471,7.902-7.255,12.042-4.471
			c7.25,4.875,17.125-3.25,13.094,6.917c4.944-1,8.322,4.847,3.614,8.889c-9.385,8.056-3.614,9.111-9.556,9.528
			C364.16,144.545,357.235,140.972,356.711,136.111z"/>
		<path style="fill:#FFC3BD;" d="M360.464,137.973c-0.745,1.564-2.142,2.637-3.491,3.091c-2.029,0.683-3.155-1.105-2.684-3.078
			c0.424-1.776,1.99-4.272,4.071-4.099C360.41,134.057,361.315,136.185,360.464,137.973z"/>
		<g>
			<path style="fill:#407BFF;" d="M355.673,223.864c0,0,8.315,55.992,12.88,76.969c4.999,22.971,23.831,99.489,23.831,99.489h13.419
				c0,0-12.418-74.663-15.27-97.407c-3.096-24.684-9.573-79.051-9.573-79.051H355.673z"/>
			<path style="opacity:0.2;fill:#FFFFFF;" d="M355.673,223.864c0,0,8.315,55.992,12.88,76.969
				c4.999,22.971,23.831,99.489,23.831,99.489h13.419c0,0-12.418-74.663-15.27-97.407c-3.096-24.684-9.573-79.051-9.573-79.051
				H355.673z"/>
			<path style="opacity:0.2;" d="M365.549,243.44c-0.617-0.877-1.184-1.178-1.704-1.028c-0.036,0.011-0.072,0.024-0.107,0.039
				c-0.112,0.046-0.221,0.108-0.328,0.195c-0.098,0.079-0.193,0.18-0.287,0.292c-0.053,0.063-0.106,0.131-0.159,0.204
				c-0.073,0.101-0.144,0.211-0.215,0.331c-0.155,0.263-0.305,0.568-0.449,0.912c-0.078,0.186-0.155,0.382-0.23,0.589
				c-0.09,0.248-0.177,0.51-0.263,0.786c-0.114,0.368-0.225,0.758-0.332,1.17c-0.028,0.106-0.055,0.214-0.082,0.323
				c-0.056,0.225-0.111,0.455-0.165,0.69c-0.045,0.195-0.089,0.394-0.132,0.596c-0.085,0.396-0.167,0.804-0.247,1.223
				c-0.085,0.446-0.167,0.904-0.247,1.373c-0.028,0.164-0.055,0.33-0.083,0.496c-0.098,0.6-0.192,1.213-0.281,1.838l0,0l0,0l0,0.004
				c2.22,13.939,4.86,29.917,7.03,41.066c0.106-0.361,0.208-0.744,0.306-1.146c0.393-1.605,0.728-3.52,1.003-5.649
				C370.432,273.372,369.557,249.169,365.549,243.44z"/>
		</g>
		<g>
			<path style="fill:#407BFF;" d="M341.772,223.864c0,0-1.009,54.78-0.212,77.123c0.829,23.24,8.946,99.335,8.946,99.335h12.412
				c0,0,0.456-74.737,1.008-97.561c0.602-24.882,3.606-78.897,3.606-78.897H341.772z"/>
			<path style="opacity:0.2;fill:#FFFFFF;" d="M341.772,223.864c0,0-1.009,54.78-0.212,77.123
				c0.829,23.24,8.946,99.335,8.946,99.335h12.412c0,0,0.456-74.737,1.008-97.561c0.602-24.882,3.606-78.897,3.606-78.897H341.772z"
				/>
		</g>
		<path style="fill:#263238;" d="M363.737,396.519c0.057,0,0,4.056,0,4.056H349.43l-0.602-4.556L363.737,396.519z"/>
		<path style="fill:#263238;" d="M405.804,396.824c0.057,0,0.669,3.75,0.669,3.75h-14.75l-1.306-4.306L405.804,396.824z"/>
		<path style="fill:#407BFF;" d="M394.637,410.663c-0.558,0-1.079-0.095-1.411-0.373c-0.263-0.221-0.384-0.53-0.359-0.918
			c0.018-0.289,0.171-0.426,0.297-0.491c0.802-0.415,3.173,1.036,3.441,1.202c0.059,0.038,0.09,0.107,0.079,0.176
			c-0.012,0.068-0.063,0.123-0.131,0.14C396.045,410.523,395.314,410.663,394.637,410.663z M393.548,409.147
			c-0.091,0-0.167,0.014-0.225,0.043c-0.047,0.024-0.101,0.069-0.109,0.203c-0.018,0.277,0.059,0.483,0.235,0.63
			c0.4,0.338,1.357,0.382,2.601,0.132C395.223,409.677,394.109,409.147,393.548,409.147z"/>
		<path style="fill:#407BFF;" d="M396.513,410.405c-0.028,0-0.057-0.007-0.083-0.02c-0.759-0.412-2.224-2.017-2.069-2.835
			c0.028-0.148,0.137-0.404,0.552-0.454c0.272-0.034,0.518,0.042,0.739,0.222c0.851,0.695,1.026,2.81,1.033,2.9
			c0.005,0.064-0.025,0.125-0.079,0.159C396.579,410.396,396.546,410.405,396.513,410.405z M395.035,407.435
			c-0.026,0-0.052,0.003-0.079,0.005c-0.226,0.027-0.245,0.132-0.254,0.175c-0.092,0.483,0.842,1.696,1.596,2.268
			c-0.085-0.618-0.319-1.851-0.865-2.297C395.308,407.485,395.178,407.435,395.035,407.435z"/>
		<path style="fill:#407BFF;" d="M350.591,410.664c-0.727,0-1.4-0.113-1.78-0.45c-0.242-0.214-0.351-0.499-0.325-0.845
			c0.016-0.206,0.115-0.366,0.286-0.461c0.889-0.5,3.835,0.996,4.168,1.169c0.065,0.034,0.102,0.106,0.092,0.179
			c-0.01,0.073-0.065,0.132-0.138,0.146C352.273,410.526,351.398,410.664,350.591,410.664z M349.265,409.147
			c-0.135,0-0.245,0.02-0.324,0.064c-0.069,0.039-0.102,0.095-0.109,0.186c-0.018,0.235,0.051,0.418,0.209,0.559
			c0.451,0.4,1.657,0.468,3.274,0.199C351.302,409.672,349.958,409.147,349.265,409.147z"/>
		<path style="fill:#407BFF;" d="M352.86,410.405c-0.024,0-0.048-0.005-0.071-0.015c-0.884-0.397-2.636-1.981-2.502-2.81
			c0.031-0.194,0.169-0.437,0.646-0.484c0.348-0.043,0.678,0.064,0.963,0.297c0.932,0.766,1.129,2.738,1.137,2.823
			c0.005,0.061-0.022,0.121-0.072,0.157C352.931,410.394,352.896,410.405,352.86,410.405z M351.073,407.435
			c-0.034,0-0.069,0.003-0.104,0.005c-0.312,0.033-0.332,0.155-0.339,0.195c-0.08,0.498,1.11,1.742,2.013,2.284
			c-0.094-0.576-0.355-1.757-0.967-2.259C351.491,407.509,351.293,407.435,351.073,407.435z"/>
	</g>
</g>
</svg>
