<svg version="1.1" id="Layer_1" xmlns="http://www.w3.org/2000/svg" xmlns:xlink="http://www.w3.org/1999/xlink" x="0px" y="0px" viewBox="0 0 500 500" style="width: 188px;" xml:space="preserve" data-imageid="search-engine-19" imageName="Motor de búsqueda" class="illustrations_image">
<style type="text/css">
	.st0_search-engine-19{fill:#68E1FD;}
	.st1_search-engine-19{fill:#231F20;}
	.st2_search-engine-19{fill:#FFFFFF;}
	.st3_search-engine-19{fill:#D1D3D4;}
	.st4_search-engine-19{fill:none;}
</style>
<g id="Character_search-engine-19">
	<path class="st0_search-engine-19 targetColor" d="M252.1,170.5c0,0,28.7,3,36.3,15.5s61.9,81,61.9,81L207.5,266c0,0-7.4-77.8,2.7-94.4&#10;&#9;&#9;C210.2,171.6,212.2,166.1,252.1,170.5z" style="fill: rgb(4, 81, 235);"/>
	<path class="st1_search-engine-19" d="M233.5,188.6c3.7,4.6,9.2,7.9,15.1,7.9c0.8,0,1.5-0.1,2.3-0.3c1-0.4,1.9-1.2,2.4-2.1c2.7-3.7,2.8-8.6,2.1-13.1&#10;&#9;&#9;c-0.5-3.1-1.4-6.5-3.8-8.6c-2.8-2.5-6.9-2.7-10.6-2.8s-12.4-1.2-13.8,3.4C225.9,177.3,231.1,185.5,233.5,188.6z"/>
	<path class="st1_search-engine-19" d="M248.9,197.3h-0.2c-5.8-0.1-11.6-3.2-15.7-8.2l0,0c-2.7-3.4-7.8-11.7-6.4-16.2s8.7-4.3,13-4&#10;&#9;&#9;c0.6,0,1.1,0.1,1.6,0.1c4.2,0.1,8.2,0.4,11.1,3s3.6,6.3,4,9c0.9,5.8,0.1,10.4-2.2,13.7c-0.7,1-1.6,1.8-2.8,2.3&#10;&#9;&#9;C250.4,197.2,249.6,197.3,248.9,197.3z M234.1,188.1c3.8,4.7,9.2,7.6,14.5,7.7c0.7,0,1.4,0,2-0.2c0.9-0.4,1.6-1,2.1-1.8&#10;&#9;&#9;c2.1-2.9,2.8-7.1,2-12.6c-0.4-2.5-1.1-6-3.5-8.1s-6.2-2.5-10.2-2.6c-0.5,0-1,0-1.6-0.1c-3.9-0.2-10.4-0.5-11.5,3&#10;&#9;&#9;C226.8,177,231.4,184.8,234.1,188.1L234.1,188.1z"/>
	<path class="st2_search-engine-19" d="M257.4,141.4c0.4-1.3,1-2.5,1.9-3.5c0.9-1,2.4-1.4,3.6-0.9c0.9,0.5,1.4,1.4,1.5,2.5c0.1,1-0.1,2-0.5,2.9&#10;&#9;&#9;c-0.6,1.8-1.6,3.4-2.9,4.7c-1.3,1.3-3.1,2-5,2"/>
	<path class="st1_search-engine-19" d="M256.4,149.9h-0.4c-0.4,0-0.7-0.4-0.7-0.8c0,0,0,0,0,0c0-0.4,0.4-0.7,0.8-0.7c0,0,0,0,0,0&#10;&#9;&#9;c1.7,0.1,3.3-0.6,4.5-1.8c1.2-1.2,2.1-2.7,2.7-4.4c0.3-0.8,0.5-1.7,0.5-2.6c0-0.8-0.5-1.5-1.1-1.9c-1-0.3-2.1-0.1-2.7,0.7&#10;&#9;&#9;c-0.8,0.9-1.4,2-1.7,3.2c-0.1,0.4-0.6,0.6-1,0.5c0,0,0,0,0,0c-0.4-0.1-0.6-0.6-0.5-0.9c0,0,0,0,0-0.1c0.4-1.4,1.1-2.7,2-3.7&#10;&#9;&#9;c1.1-1.2,2.9-1.6,4.5-1c1.1,0.6,1.8,1.7,1.9,3c0.1,1.1-0.1,2.2-0.5,3.3c-0.6,1.9-1.7,3.6-3.1,5C260.2,149,258.3,149.8,256.4,149.9z&#10;&#9;&#9;"/>
	<path class="st2_search-engine-19" d="M250.4,159.1l1.6,15.7c0,0-0.8,9-10.6,7.2c-5.9-1.1-10.9-4.8-13.8-10.1l0.4-28.2c-0.1-1.2,2.3-5.1,1.2-15.1&#10;&#9;&#9;c6.8-0.7,13-4.2,17.1-9.7c0,0,4.6,5.6,6.5,7.4c1.5,1.3,2.9,2.8,4,4.4c3,4.6,2.9,12.1,2.2,17.3C258.4,152.3,255.8,159.2,250.4,159.1&#10;&#9;&#9;z"/>
	<path class="st1_search-engine-19" d="M243.8,183c-0.9,0-1.7-0.1-2.6-0.2c-6.1-1.1-11.4-5-14.3-10.5c-0.1-0.1-0.1-0.2-0.1-0.3c0,0,0.4-28,0.4-28.2&#10;&#9;&#9;c0-0.5,0.1-1.1,0.3-1.6c0.6-1.9,1.7-6,0.9-13.4c0-0.2,0-0.4,0.2-0.6c0.1-0.2,0.3-0.3,0.5-0.3c6.6-0.7,12.6-4.1,16.6-9.4&#10;&#9;&#9;c0.1-0.2,0.4-0.3,0.6-0.3c0.2,0,0.5,0.1,0.6,0.3c0,0,4.6,5.6,6.4,7.3c1.6,1.3,3,2.9,4.2,4.6c3.6,5.4,2.8,14.3,2.3,17.8&#10;&#9;&#9;c-0.6,4.2-3.1,11.2-8.5,11.8l1.5,14.9v0.1c-0.3,2.5-1.5,4.8-3.4,6.4C247.7,182.5,245.8,183.1,243.8,183z M228.3,171.7&#10;&#9;&#9;c2.8,5,7.6,8.5,13.2,9.5c2.9,0.5,5.2,0.1,6.9-1.2c1.6-1.3,2.6-3.2,2.9-5.3l-1.6-15.7c0-0.2,0.1-0.4,0.2-0.6&#10;&#9;&#9;c0.2-0.1,0.4-0.2,0.6-0.2h0.1c4.9,0,7.2-6.6,7.7-10.5c0.5-3.4,1.2-11.8-2.1-16.8c-1.1-1.6-2.4-3-3.9-4.3c-1.5-1.4-4.6-5.1-5.9-6.7&#10;&#9;&#9;c-4.1,5-9.9,8.3-16.3,9.1c0.7,7.3-0.4,11.3-1,13.3c-0.1,0.4-0.2,0.7-0.3,1.1C228.7,143.6,228.7,143.6,228.3,171.7L228.3,171.7z"/>
	<path class="st1_search-engine-19" d="M250.9,164.2c-2.6,0.5-5.2,0.2-7.7-0.8c-5.6-2-5.9-5.8-5.9-5.8s4.7,3,13.1,1.4L250.9,164.2z"/>
	<path class="st1_search-engine-19" d="M248.6,165.2c-1.9,0-3.8-0.4-5.6-1c-6-2.1-6.4-6.3-6.4-6.4c0-0.4,0.3-0.8,0.7-0.8c0.2,0,0.3,0,0.5,0.1&#10;&#9;&#9;c0.1,0,4.6,2.8,12.5,1.3c0.4-0.1,0.8,0.2,0.9,0.6c0,0,0,0,0,0.1l0.5,5.1c0.1,0.4-0.1,0.8-0.5,0.9c-0.1,0-0.1,0-0.2,0&#10;&#9;&#9;C250.1,165.2,249.4,165.2,248.6,165.2z M238.6,159.1c1.1,1.8,2.9,3.1,4.9,3.7c2.1,0.8,4.4,1.1,6.6,0.9l-0.4-3.6&#10;&#9;&#9;C246,160.7,242.1,160.4,238.6,159.1L238.6,159.1z"/>
	<path class="st2_search-engine-19" d="M242.2,137c0,0,5.8,7.1,4.8,8.5s-4.5,0.9-4.5,0.9"/>
	<path class="st1_search-engine-19" d="M243.9,147.3c-0.5,0-1,0-1.5-0.1c-0.4-0.1-0.7-0.4-0.6-0.9c0.1-0.4,0.4-0.7,0.9-0.6c0,0,0,0,0,0&#10;&#9;&#9;c1,0.1,3.2,0.2,3.8-0.6c0.2-0.7-2-4.3-4.7-7.6c-0.3-0.3-0.2-0.8,0.1-1.1s0.8-0.2,1.1,0.1c2.8,3.4,6,7.8,4.8,9.4&#10;&#9;&#9;C246.8,147.1,245.1,147.3,243.9,147.3z"/>
	
		<ellipse transform="matrix(0.9912 -0.1326 0.1326 0.9912 -16.0022 34.5037)" class="st1_search-engine-19" cx="251.1" cy="137.4" rx="0.9" ry="1.6"/>
	
		<ellipse transform="matrix(0.9999 -1.169344e-02 1.169344e-02 0.9999 -1.5859 2.7837)" class="st1_search-engine-19" cx="237.3" cy="137" rx="0.9" ry="1.6"/>
	<path class="st2_search-engine-19" d="M231.1,139.4c-0.4-1.3-1-2.6-1.8-3.8c-0.9-1.3-2.5-2.1-4.1-2.1c-1,0-1.9,0.5-2.5,1.3c-0.3,0.6-0.6,1.2-0.6,1.9&#10;&#9;&#9;c-0.5,3.5,0.6,8.1,3.9,9.9c1.1,0.7,2.6,0.7,3.7,0.1"/>
	<path class="st1_search-engine-19" d="M228.2,148c-0.9,0-1.7-0.2-2.4-0.6c-3.6-2-4.9-6.8-4.3-10.6c0.1-0.8,0.3-1.5,0.8-2.2c0.7-1,1.8-1.6,3.1-1.7&#10;&#9;&#9;c1.9,0,3.6,0.8,4.7,2.4c0.9,1.2,1.5,2.6,1.9,4c0.1,0.4-0.1,0.8-0.5,0.9c-0.4,0.1-0.8-0.1-0.9-0.5c-0.3-1.3-0.9-2.4-1.6-3.5&#10;&#9;&#9;c-0.8-1.1-2.1-1.8-3.4-1.8c-0.8,0-1.5,0.4-1.9,1c-0.3,0.5-0.5,1-0.5,1.6c-0.5,3.3,0.6,7.5,3.6,9.1c0.9,0.6,2,0.6,2.9,0.1&#10;&#9;&#9;c0.3-0.3,0.8-0.2,1.1,0.1c0.3,0.3,0.2,0.8-0.1,1.1C229.7,147.8,228.9,148,228.2,148z"/>
	<path class="st1_search-engine-19" d="M285,259.8c-3.5-21.9-10.2-63.5-10.5-64.8"/>
	<path class="st1_search-engine-19" d="M285,260.5c-0.4,0-0.7-0.3-0.7-0.6c-4.1-25.4-10.2-63.5-10.5-64.7c-0.1-0.4,0.2-0.8,0.6-0.9&#10;&#9;&#9;c0.4-0.1,0.7,0.2,0.8,0.5c0.4,1.6,10.4,64.2,10.5,64.8c0.1,0.4-0.2,0.8-0.6,0.9c0,0,0,0,0,0L285,260.5z"/>
	<polygon class="st2_search-engine-19" points="243,217.6 225.7,217.8 225.2,211.5 241.7,211.3 &#9;"/>
	<path class="st1_search-engine-19" d="M225.7,218.5c-0.4,0-0.7-0.3-0.8-0.7l-0.5-6.3c0-0.4,0.3-0.8,0.7-0.8c0,0,0,0,0.1,0l16.6-0.2&#10;&#9;&#9;c0.4,0,0.7,0.3,0.7,0.6l1.2,6.3c0,0.2,0,0.4-0.2,0.6c-0.1,0.2-0.3,0.3-0.6,0.3L225.7,218.5L225.7,218.5z M226,212.2l0.4,4.8&#10;&#9;&#9;l15.7-0.1l-0.9-4.8L226,212.2z"/>
	<path class="st2_search-engine-19" d="M252,148.5c0,0-10.3,13-17.9-1.4"/>
	<path class="st1_search-engine-19" d="M242.7,154.7c-0.2,0-0.5,0-0.7,0c-3.3-0.3-6.1-2.7-8.5-7.1c-0.2-0.4-0.1-0.8,0.3-1s0.8-0.1,1,0.3&#10;&#9;&#9;c2.1,3.9,4.5,6.1,7.3,6.4c4.9,0.5,9.3-5,9.4-5.1c0.3-0.3,0.7-0.3,1-0.1c0.3,0.3,0.4,0.7,0.1,1.1&#10;&#9;&#9;C252.4,149.2,248.1,154.7,242.7,154.7z"/>
	<path class="st1_search-engine-19" d="M334.7,197c-0.2,0-0.4-0.1-0.5-0.2c-0.3-0.3-0.3-0.8,0-1.1c7.4-7.1,9.1-22-0.1-33&#10;&#9;&#9;c-9.4-11.2-24.5-13.4-32.6-13.7c-1.8-0.1-3.7-0.1-5.4-0.1c-7.9,0-16-0.1-22.2-4.8c-3.6-2.7-6.1-8.2-8.7-14.1&#10;&#9;&#9;c-3.5-7.8-7.1-15.8-13.5-16.8c-1.1-0.1-2.3,0.1-3.3,0.5c-1.1,0.5-2.4,0.7-3.6,0.5c-0.9-0.2-1.7-0.6-2.4-1.2l-0.5-0.3&#10;&#9;&#9;c-5.4-3.4-12.7-3.3-19.6,0.1c-7.6,3.8-12.9,12.6-13.8,23c-0.9,9.4,1.4,18.7,3.7,27.7l-1.4,0.4l0.7-0.2l-0.7,0.2&#10;&#9;&#9;c-2.3-9.1-4.6-18.5-3.7-28.2c1-10.9,6.6-20.2,14.6-24.2c7.4-3.7,15.3-3.7,21.1-0.1l0.5,0.3c1.3,1.2,3.2,1.4,4.7,0.5&#10;&#9;&#9;c1.3-0.5,2.6-0.7,4-0.6c7.1,1.1,10.9,9.5,14.6,17.6c2.6,5.7,5,11.1,8.3,13.5c5.8,4.4,13.7,4.4,21.4,4.4c1.7,0,3.6,0,5.4,0.1&#10;&#9;&#9;c8.4,0.3,23.9,2.6,33.7,14.2s7.9,27.5,0,35C335.1,196.9,334.9,197,334.7,197z"/>
</g>
<g id="Backgrouhd_search-engine-19">
	<rect x="353.3" y="135.8" class="st2_search-engine-19" width="121.1" height="118.5"/>
	<path class="st3_search-engine-19" d="M474.4,255.1H353.3c-0.4,0-0.7-0.3-0.8-0.8V135.8c0-0.4,0.3-0.7,0.8-0.8h121.1c0.4,0,0.8,0.3,0.8,0.8v118.5&#10;&#9;&#9;C475.1,254.7,474.8,255.1,474.4,255.1L474.4,255.1z M354,253.6h119.6v-117H354V253.6z"/>
	<rect x="353.3" y="232.4" class="st2_search-engine-19" width="121.1" height="21.9"/>
	<path class="st3_search-engine-19" d="M474.4,255.1H353.3c-0.4,0-0.7-0.3-0.8-0.8v-21.9c0-0.4,0.3-0.7,0.8-0.8h121.1c0.4,0,0.8,0.3,0.8,0.8v21.9&#10;&#9;&#9;C475.1,254.7,474.8,255.1,474.4,255.1L474.4,255.1z M354,253.6h119.6v-20.4H354V253.6z"/>
	<path class="st2_search-engine-19" d="M434.4,184.2l-27.1,14.1c-1.3,0.7-2.9,0.2-3.6-1.1c-0.2-0.4-0.3-0.8-0.3-1.2v-28.3c0-1.5,1.2-2.7,2.6-2.7&#10;&#9;&#9;c0.4,0,0.9,0.1,1.2,0.3l27.1,14.1c1.3,0.7,1.8,2.3,1.1,3.6C435.2,183.6,434.8,184,434.4,184.2z"/>
	<path class="st3_search-engine-19" d="M406,199.4c-0.6,0-1.2-0.2-1.8-0.5c-1-0.6-1.6-1.7-1.6-2.9v-28.3c0-1.9,1.5-3.4,3.4-3.4c0.6,0,1.1,0.1,1.6,0.4&#10;&#9;&#9;l27.1,14.1c1.7,0.9,2.3,2.9,1.4,4.6c-0.3,0.6-0.8,1.1-1.4,1.4l0,0L407.6,199C407.1,199.3,406.5,199.4,406,199.4z M406,165.9&#10;&#9;&#9;c-0.4,0-0.7,0.1-1,0.3c-0.6,0.3-0.9,1-0.9,1.6V196c0,1,0.9,1.9,1.9,1.9c0.3,0,0.6-0.1,0.9-0.2l27.1-14.1c0.9-0.5,1.3-1.6,0.8-2.5&#10;&#9;&#9;c-0.2-0.4-0.5-0.6-0.8-0.8l-27.1-14.1C406.6,165.9,406.3,165.9,406,165.9z M434.4,184.2L434.4,184.2z"/>
	<polygon class="st2_search-engine-19" points="126.9,249.4 15.9,249.4 15.9,164.3 31.1,148.8 126.9,148.8 &#9;"/>
	<path class="st3_search-engine-19" d="M126.9,250.1h-111c-0.4,0-0.8-0.3-0.8-0.8v-85.1c0-0.2,0.1-0.4,0.2-0.5l15.1-15.5c0.1-0.1,0.3-0.2,0.5-0.2&#10;&#9;&#9;h95.9c0.4,0,0.7,0.3,0.8,0.8v100.5C127.7,249.8,127.4,250.1,126.9,250.1z M16.7,248.6h109.5v-99H31.4l-14.7,15L16.7,248.6z"/>
	<path class="st3_search-engine-19" d="M117.4,217.7H25.2c-0.4,0-0.8-0.3-0.8-0.8s0.3-0.8,0.8-0.8h92.2c0.4,0,0.8,0.3,0.8,0.8&#10;&#9;&#9;S117.8,217.7,117.4,217.7z"/>
	<path class="st3_search-engine-19" d="M25.2,232.2c-0.4,0-0.8-0.3-0.8-0.8s0.3-0.8,0.8-0.8h92.2c0.4,0,0.8,0.3,0.8,0.8s-0.3,0.8-0.8,0.8H25.2z"/>
	<path class="st2_search-engine-19" d="M31.9,148.6l-0.2,15.5c0,0.3-0.3,0.6-0.6,0.6H16.1"/>
	<path class="st3_search-engine-19" d="M31,165.5H16.1c-0.4,0-0.8-0.3-0.8-0.8s0.3-0.8,0.8-0.8h14.8l0.2-15.4c0-0.4,0.3-0.7,0.7-0.7c0,0,0.1,0,0.1,0&#10;&#9;&#9;c0.4,0,0.7,0.3,0.7,0.8l-0.2,15.5C32.4,164.9,31.8,165.5,31,165.5z"/>
	<path class="st3_search-engine-19" d="M117.4,174H25.2c-0.4,0-0.8-0.3-0.8-0.8s0.3-0.8,0.8-0.8h92.2c0.4,0,0.8,0.3,0.8,0.8S117.8,174,117.4,174z"/>
	<path class="st3_search-engine-19" d="M118,188.6H25.2c-0.4,0-0.8-0.3-0.8-0.8s0.3-0.8,0.8-0.8H118c0.4,0,0.8,0.3,0.8,0.8S118.4,188.6,118,188.6z"/>
	<path class="st3_search-engine-19" d="M117.4,203.1H25.2c-0.4,0-0.8-0.3-0.8-0.8s0.3-0.8,0.8-0.8h92.2c0.4,0,0.8,0.3,0.8,0.8&#10;&#9;&#9;S117.8,203.1,117.4,203.1z"/>
	<rect x="114.7" y="112.2" class="st2_search-engine-19" width="58" height="46.4"/>
	<path class="st3_search-engine-19" d="M172.6,159.3h-58c-0.4,0-0.7-0.3-0.8-0.8v-46.4c0-0.4,0.3-0.7,0.8-0.8h58c0.4,0,0.8,0.3,0.8,0.8v46.4&#10;&#9;&#9;C173.4,159,173,159.3,172.6,159.3z M115.4,157.8h56.5v-44.9h-56.5V157.8z"/>
	<path class="st3_search-engine-19" d="M114.8,147.3c-0.2,0-0.4-0.1-0.5-0.2c-0.3-0.3-0.3-0.8,0-1.1l18.2-18.2c1.3-1.3,3.1-2,4.9-1.9&#10;&#9;&#9;c1.8,0.1,3.5,0.9,4.7,2.3l15.1,17.8c0.3,0.3,0.2,0.8-0.1,1.1c-0.3,0.3-0.8,0.2-1.1-0.1l-15.1-17.7c-1.8-2.1-4.9-2.4-7-0.6&#10;&#9;&#9;c-0.1,0.1-0.2,0.2-0.3,0.3l-18.2,18.2C115.2,147.3,115,147.3,114.8,147.3z"/>
	<path class="st3_search-engine-19" d="M172.6,143.2c-0.2,0-0.4-0.1-0.6-0.2l-7.6-8.2c-1.9-2-5-2.2-7.1-0.3c-0.1,0.1-0.2,0.2-0.3,0.3l-5.1,5.7&#10;&#9;&#9;c-0.3,0.3-0.8,0.3-1.1,0c-0.3-0.3-0.3-0.8,0-1.1l5.2-5.6c2.4-2.6,6.6-2.8,9.2-0.4c0.1,0.1,0.3,0.2,0.4,0.4l7.6,8.2&#10;&#9;&#9;c0.3,0.3,0.2,0.8-0.1,1.1C173.1,143.1,172.9,143.2,172.6,143.2L172.6,143.2z"/>
	<circle class="st2_search-engine-19" cx="152.4" cy="121.9" r="3.2"/>
	<path class="st3_search-engine-19" d="M152.4,125.9c-2.2,0-4-1.8-4-4s1.8-4,4-4s4,1.8,4,4S154.6,125.9,152.4,125.9z M152.4,119.5&#10;&#9;&#9;c-1.4,0-2.5,1.1-2.5,2.5s1.1,2.5,2.5,2.5c1.4,0,2.5-1.1,2.5-2.5S153.8,119.5,152.4,119.5L152.4,119.5z"/>
</g>
<g id="search_box_search-engine-19">
	<path class="st2_search-engine-19" d="M436.2,232.4v139.2c0,14.1-11.4,25.6-25.6,25.6H73.8c-14.1,0-25.5-11.4-25.5-25.5c0,0,0,0,0,0V232.4&#10;&#9;&#9;c0-14.1,11.4-25.6,25.5-25.6h336.9C424.8,206.9,436.2,218.3,436.2,232.4z"/>
	<path class="st1_search-engine-19" d="M410.7,397.9H73.8c-14.5,0-26.3-11.8-26.3-26.3V232.4c0-14.5,11.8-26.3,26.3-26.3h336.9&#10;&#9;&#9;c14.5,0,26.3,11.8,26.3,26.3v139.2C437,386.1,425.2,397.9,410.7,397.9z M73.8,207.6c-13.7,0-24.8,11.1-24.8,24.8v139.2&#10;&#9;&#9;c0,13.7,11.1,24.8,24.8,24.8h336.9c13.7,0,24.8-11.1,24.8-24.8V232.4c0-13.7-11.1-24.8-24.8-24.8H73.8z"/>
	<path class="st2_search-engine-19" d="M436.2,232.4v9.4h-388v-9.4c0-14.1,11.4-25.6,25.6-25.6h336.9C424.8,206.9,436.2,218.3,436.2,232.4z"/>
	<path class="st1_search-engine-19" d="M436.2,242.6h-388c-0.4,0-0.7-0.3-0.8-0.8v-9.4c0-14.5,11.8-26.3,26.3-26.3h336.9c14.5,0,26.3,11.8,26.3,26.3&#10;&#9;&#9;v9.4C437,242.2,436.7,242.6,436.2,242.6C436.2,242.6,436.2,242.6,436.2,242.6z M49,241.1h386.5v-8.7c0-13.7-11.1-24.8-24.8-24.8&#10;&#9;&#9;H73.8c-13.7,0-24.8,11.1-24.8,24.8V241.1z"/>
	<path class="st2_search-engine-19" d="M113.8,294.7c-7.4,0.1-13.3,6.2-13.2,13.6v29.5c-0.1,7.4,5.8,13.5,13.2,13.6h242.5c7.4-0.1,13.3-6.2,13.2-13.6&#10;&#9;&#9;v-29.5c0.1-7.4-5.8-13.5-13.2-13.6H113.8z"/>
	<path class="st0_search-engine-19 targetColor" d="M356.3,352.3H113.8c-7.8-0.1-14.1-6.5-14-14.4v-29.5c-0.1-7.8,6.2-14.3,14-14.4h242.5&#10;&#9;&#9;c7.8,0.1,14.1,6.5,14,14.4v29.5C370.4,345.7,364.1,352.2,356.3,352.3z M113.8,295.5c-7,0.1-12.6,5.9-12.5,12.9v29.5&#10;&#9;&#9;c-0.1,7,5.5,12.8,12.5,12.9h242.5c7-0.1,12.6-5.9,12.5-12.9v-29.5c0.1-7-5.5-12.8-12.5-12.9L113.8,295.5z" style="fill: rgb(4, 81, 235);"/>
	<path class="st0_search-engine-19 targetColor" d="M370.2,308.8v28.7c0,7.7-6.2,13.9-13.9,13.9H305v-56.5h51.3C364,294.9,370.2,301.1,370.2,308.8z" style="fill: rgb(4, 81, 235);"/>
	<path class="st2_search-engine-19" d="M332.2,330.9c-7.4,0-13.5-6-13.5-13.5c0-7.4,6-13.5,13.5-13.5c3.6,0,7,1.4,9.5,4l0,0c5.3,5.3,5.2,13.8,0,19.1&#10;&#9;&#9;C339.2,329.4,335.7,330.8,332.2,330.9z M332.2,307.9c-5.2,0-9.5,4.2-9.5,9.5c0,5.2,4.2,9.5,9.5,9.5s9.5-4.2,9.5-9.5&#10;&#9;&#9;c0-2.5-1-4.9-2.8-6.7l0,0C337.1,308.9,334.7,307.9,332.2,307.9L332.2,307.9z"/>
	<path class="st2_search-engine-19" d="M352.9,340.7c-0.5,0-1.1-0.2-1.5-0.6l-12.6-13.2c-0.8-0.8-0.7-2.1,0.1-2.8s2.1-0.7,2.8,0.1l0,0l12.6,13.2&#10;&#9;&#9;c0.8,0.8,0.7,2.1-0.1,2.8C353.9,340.5,353.4,340.7,352.9,340.7L352.9,340.7z"/>
	<circle class="st0_search-engine-19 targetColor" cx="78.6" cy="225.9" r="4.2" style="fill: rgb(4, 81, 235);"/>
	<circle class="st3_search-engine-19" cx="93.5" cy="225.9" r="4.2"/>
	<circle class="st3_search-engine-19" cx="108.3" cy="225.9" r="4.2"/>
	<path class="st1_search-engine-19" d="M119.4,328.9c1.2,0.7,2.6,1.1,4.1,1.1c2.3,0,3.7-1.2,3.7-3s-0.9-2.6-3.3-3.5c-2.9-1-4.7-2.5-4.7-5&#10;&#9;&#9;c0-2.8,2.3-4.8,5.7-4.8c1.4,0,2.7,0.3,3.9,0.9l-0.6,1.9c-1-0.5-2.2-0.8-3.3-0.8c-2.4,0-3.3,1.4-3.3,2.6c0,1.6,1.1,2.5,3.5,3.4&#10;&#9;&#9;c3,1.1,4.5,2.6,4.5,5.2s-2,5.1-6.2,5.1c-1.6,0-3.1-0.4-4.5-1.1L119.4,328.9z"/>
	<path class="st1_search-engine-19" d="M134,325.8c0.1,3.1,2,4.4,4.3,4.4c1.2,0,2.4-0.2,3.5-0.7l0.4,1.6c-1.3,0.6-2.8,0.9-4.2,0.8&#10;&#9;&#9;c-3.9,0-6.2-2.6-6.2-6.4s2.2-6.8,5.9-6.8c4.1,0,5.2,3.6,5.2,6c0,0.4,0,0.7-0.1,1.1L134,325.8z M140.8,324.1c0-1.5-0.6-3.7-3.2-3.7&#10;&#9;&#9;c-2.3,0-3.3,2.1-3.5,3.7H140.8z"/>
	<path class="st1_search-engine-19" d="M152.8,331.7l-0.2-1.6h-0.1c-0.9,1.2-2.3,1.9-3.9,1.9c-2,0.1-3.7-1.3-3.9-3.3c0-0.1,0-0.2,0-0.3&#10;&#9;&#9;c0-3.1,2.7-4.7,7.6-4.7v-0.3c0.2-1.4-0.8-2.7-2.3-2.9c-0.2,0-0.4,0-0.6,0c-1.2,0-2.3,0.3-3.3,1l-0.5-1.5c1.3-0.8,2.7-1.1,4.2-1.1&#10;&#9;&#9;c3.9,0,4.8,2.6,4.8,5.2v4.7c0,1,0.1,2,0.2,3L152.8,331.7z M152.5,325.2c-2.5,0-5.4,0.4-5.4,2.9c-0.1,1.1,0.7,2.1,1.8,2.2&#10;&#9;&#9;c0.1,0,0.3,0,0.4,0c1.4,0,2.6-0.8,3.1-2.1c0.1-0.2,0.1-0.5,0.1-0.7V325.2z"/>
	<path class="st1_search-engine-19" d="M158.4,323c0-1.5,0-2.8-0.1-4h2l0.1,2.5h0.1c0.4-1.6,1.9-2.7,3.5-2.8c0.2,0,0.4,0,0.7,0.1v2.2&#10;&#9;&#9;c-0.3-0.1-0.5-0.1-0.8-0.1c-1.6,0.1-3,1.4-3.1,3c-0.1,0.4-0.1,0.7-0.1,1.1v6.8h-2.3L158.4,323z"/>
	<path class="st1_search-engine-19" d="M175.8,331.2c-1.1,0.5-2.4,0.8-3.6,0.7c-3.8,0-6.3-2.6-6.3-6.5c-0.2-3.5,2.6-6.6,6.1-6.7c0.2,0,0.5,0,0.7,0&#10;&#9;&#9;c1.1,0,2.2,0.2,3.2,0.6l-0.5,1.8c-0.8-0.4-1.7-0.6-2.7-0.6c-2.9,0-4.5,2.1-4.5,4.8c0,2.9,1.9,4.7,4.4,4.7c1,0,1.9-0.2,2.8-0.6&#10;&#9;&#9;L175.8,331.2z"/>
	<path class="st1_search-engine-19" d="M178.4,313.1h2.3v7.9h0.1c0.4-0.7,1-1.2,1.6-1.6c0.7-0.4,1.5-0.7,2.4-0.7c1.7,0,4.4,1,4.4,5.4v7.5h-2.3v-7.3&#10;&#9;&#9;c0-2-0.8-3.8-2.9-3.8c-1.4,0-2.7,1-3.1,2.3c-0.1,0.3-0.2,0.7-0.2,1.1v7.6h-2.3V313.1z"/>
	<path class="st1_search-engine-19" d="M192.4,330.3c-0.1-0.8,0.6-1.6,1.4-1.6c0,0,0.1,0,0.1,0c0.9,0,1.7,0.7,1.7,1.6c0,0.9-0.7,1.7-1.6,1.7&#10;&#9;&#9;C193.2,332,192.5,331.3,192.4,330.3C192.4,330.4,192.4,330.4,192.4,330.3z"/>
	<path class="st1_search-engine-19" d="M197.8,330.3c-0.1-0.8,0.6-1.6,1.4-1.6c0,0,0.1,0,0.1,0c0.9,0,1.7,0.7,1.7,1.6c0,0.9-0.7,1.7-1.6,1.7&#10;&#9;&#9;C198.7,332,197.9,331.3,197.8,330.3C197.8,330.4,197.8,330.4,197.8,330.3z"/>
	<path class="st1_search-engine-19" d="M203.2,330.3c-0.1-0.9,0.6-1.6,1.4-1.6c0,0,0.1,0,0.1,0c0.9,0,1.7,0.7,1.7,1.6c0,0.9-0.7,1.7-1.6,1.7&#10;&#9;&#9;C204.1,332,203.3,331.3,203.2,330.3C203.3,330.4,203.3,330.4,203.2,330.3z"/>
</g>
<g id="character_hand_search-engine-19">
	<path class="st2_search-engine-19" d="M241.8,254.2c0,0,10.4,3.8,13.5,3.4c3.1-0.4,12.7-4.7,13.9-3.7s0.8,3.8-9.3,8.4c0,0,26.6,14.1,25.1,15.7&#10;&#9;&#9;s-13.1-3.7-23.4-7.9c0,0-5.4,9-13.2,7.4s-12.7-8.6-12.7-8.6"/>
	<path class="st1_search-engine-19" d="M284,279c-2.6,0-7.9-2.1-17.7-6.1l-4.5-1.9c-1.4,2-6.4,8.7-13.7,7.2c-8.1-1.7-13-8.7-13.2-9&#10;&#9;&#9;c-0.2-0.4-0.1-0.8,0.3-1c0.3-0.2,0.7-0.1,1,0.2c0,0.1,4.8,6.8,12.3,8.4c7.3,1.5,12.4-7,12.4-7c0.2-0.3,0.6-0.5,0.9-0.3l5,2.1&#10;&#9;&#9;c6.3,2.6,14.7,6.1,17.1,6.1h0.1c-2.1-2.1-13.6-8.8-24.4-14.6c-0.3-0.1-0.4-0.4-0.4-0.7c0-0.3,0.2-0.5,0.4-0.7&#10;&#9;&#9;c8.3-3.8,9.2-6,9.3-6.6c0-0.2,0-0.4-0.2-0.6c-0.7-0.2-4.5,1.1-7.1,2c-2,0.8-4.1,1.4-6.2,1.9c-3.1,0.4-12.8-3.1-13.8-3.5&#10;&#9;&#9;c-0.4-0.2-0.6-0.6-0.4-1c0.1-0.4,0.6-0.6,0.9-0.4c2.9,1,10.8,3.7,13.1,3.4c2-0.4,4-1,5.9-1.8c5.4-1.9,7.7-2.5,8.6-1.7&#10;&#9;&#9;c0.5,0.5,0.8,1.2,0.7,1.9c-0.3,2-3.3,4.4-8.8,7.1c8.1,4.3,23.9,13,24.2,15.3c0,0.3-0.1,0.6-0.3,0.8C285.1,278.9,284.6,279,284,279z&#10;&#9;&#9;"/>
	<path class="st2_search-engine-19" d="M316,202c-3.8-1.2-8.4-2-11.6,0.4c-1.5,1.3-2.7,2.9-3.5,4.8c-1.8,3.5-3.3,7.1-4.6,10.8c-0.3,1-0.5,2.2,0.3,2.8&#10;&#9;&#9;c1,0.7,2.3-0.4,2.9-1.5c1.2-1.9,2.1-3.9,2.7-6c-1.4,3-2.4,6.2-3,9.5c-0.1,0.4-0.1,0.8,0,1.2c0.4,0.7,1.3,0.9,2,0.5&#10;&#9;&#9;c0.7-0.4,1.2-1,1.6-1.7c1.7-2.8,3-5.8,4.1-8.9c-1,3.2-2,6.5-1.9,9.9c-0.1,0.6,0.1,1.1,0.5,1.6c0.5,0.4,1.3,0.3,1.8-0.1&#10;&#9;&#9;c0.5-0.4,0.8-1,1.1-1.6l4-8.4c-0.8,3.1-1.3,6.4-1.4,9.6c0,0.3,0,0.5,0.1,0.8c0.5,0.9,1.8,0.3,2.4-0.5c0.9-1.4,1.5-2.8,1.8-4.4&#10;&#9;&#9;c1.1-4.1,2-8.3,3.3-12.4C319.6,205.1,320,203.3,316,202z"/>
	<path class="st1_search-engine-19" d="M311.8,226.9h-0.1c-0.5,0-1-0.3-1.3-0.8c-0.2-0.4-0.2-0.8-0.2-1.2c0-1.3,0.1-2.6,0.3-3.9l-1.5,3&#10;&#9;&#9;c-0.3,0.7-0.7,1.3-1.3,1.8c-0.8,0.7-1.9,0.7-2.7,0.1c-0.6-0.5-0.9-1.3-0.8-2.1c0-0.7,0-1.5,0.1-2.2c-0.3,0.5-0.6,1-0.9,1.5&#10;&#9;&#9;c-0.4,0.8-1.1,1.5-1.9,2c-0.6,0.3-1.3,0.3-1.9,0.1c-0.5-0.2-0.9-0.5-1.1-1c-0.2-0.5-0.2-1.1-0.1-1.6c0.1-0.5,0.2-1,0.3-1.4&#10;&#9;&#9;c-0.3,0.2-0.6,0.4-1,0.4c-0.5,0.1-1.1,0-1.5-0.3c-0.7-0.5-1.3-1.5-0.6-3.7c1.3-3.7,2.8-7.4,4.6-10.9c0.8-1.9,2.1-3.6,3.7-5&#10;&#9;&#9;c2.8-2.1,6.8-2.3,12.3-0.5c4.8,1.6,4,4.3,3,7.4c-0.8,2.7-1.5,5.5-2.2,8.2c-0.4,1.4-0.7,2.8-1.1,4.1c-0.3,1.7-1,3.2-1.9,4.7&#10;&#9;&#9;C313.5,226.4,312.7,226.9,311.8,226.9z M312.4,214.6c0.1,0,0.2,0,0.3,0.1c0.4,0.1,0.6,0.5,0.5,0.9c-0.9,3.1-1.3,6.2-1.4,9.4&#10;&#9;&#9;c-0.1,0.3,0.1,0.7,0.4,0.8c0.3,0.1,0.7-0.1,0.8-0.4c0-0.2,0-0.3-0.1-0.5c0.8-1.3,1.4-2.7,1.7-4.2c0.4-1.4,0.7-2.7,1.1-4.1&#10;&#9;&#9;c0.7-2.7,1.4-5.6,2.2-8.3c1-3.3,1.2-4.4-2-5.5c-5-1.6-8.5-1.5-10.9,0.3c-1.4,1.2-2.5,2.8-3.3,4.5c-1.8,3.5-3.3,7-4.5,10.7&#10;&#9;&#9;c-0.1,0.4-0.5,1.6,0,2c0.1,0.1,0.3,0.1,0.4,0.1c0.6-0.2,1.2-0.7,1.5-1.3c0.3-0.5,0.6-1,0.9-1.6c0.5-1.5,1.1-3,1.8-4.4&#10;&#9;&#9;c0.2-0.4,0.6-0.5,1-0.3c0.3,0.2,0.5,0.5,0.4,0.9c-0.5,1.5-1,3-1.8,4.4c-0.5,1.6-1,3.3-1.2,5c-0.1,0.3-0.1,0.5,0,0.8&#10;&#9;&#9;c0.1,0.1,0.1,0.2,0.3,0.2c0.2,0.1,0.5,0.1,0.8,0c0.5-0.4,1-0.8,1.2-1.4c1.6-2.7,3-5.7,4-8.7c0.1-0.4,0.6-0.6,1-0.5&#10;&#9;&#9;c0.4,0.1,0.6,0.5,0.5,0.9c-1,3.1-2,6.4-1.9,9.6c0,0.4,0.1,0.7,0.3,1c0.3,0.1,0.6,0.1,0.8-0.1c0.4-0.4,0.7-0.8,0.9-1.3l4-8.4&#10;&#9;&#9;C311.8,214.8,312.1,214.6,312.4,214.6z"/>
	<path class="st0_search-engine-19 targetColor" d="M210.2,171.6c0,0-70.2,32.6-69.9,52.4c0.5,25.4,89.4,50.8,89.4,50.8l13.8-26.5l-56.7-27.1l41.9-22.9&#10;&#9;&#9;L210.2,171.6z" style="fill: rgb(4, 81, 235);"/>
	<line class="st4_search-engine-19" x1="225.2" y1="200.4" x2="179.8" y2="225"/>
	<path class="st1_search-engine-19" d="M179.8,225.8c-0.4,0-0.8-0.3-0.8-0.7c0-0.3,0.2-0.5,0.4-0.7l45.4-24.6c0.4-0.2,0.8-0.1,1,0.3s0.1,0.8-0.3,1&#10;&#9;&#9;l-45.4,24.6C180,225.7,179.9,225.7,179.8,225.8z"/>
</g>
</svg>